<mxfile host="app.diagrams.net" modified="2024-04-08T14:09:04.669Z" agent="Mozilla/5.0 (X11; Linux x86_64) AppleWebKit/537.36 (KHTML, like Gecko) Chrome/117.0.0.0 Safari/537.36" etag="PgzcL0lPE6wt9hmW6gSr" version="24.2.2" type="github">
  <diagram name="Page-1" id="uOgKkhfbpgy8rhkQzNu4">
    <mxGraphModel dx="756" dy="500" grid="1" gridSize="10" guides="1" tooltips="1" connect="1" arrows="1" fold="1" page="1" pageScale="1" pageWidth="827" pageHeight="1169" math="0" shadow="0">
      <root>
        <mxCell id="0" />
        <mxCell id="1" parent="0" />
        <mxCell id="kwpmOlfegCg05qd6BDI_-1" value="&lt;div style=&quot;box-sizing: border-box; width: 100%; background: rgb(228, 228, 228); padding: 2px; font-size: 14px;&quot;&gt;&lt;font style=&quot;font-size: 14px;&quot;&gt;ADMIN&lt;/font&gt;&lt;/div&gt;&lt;table style=&quot;width: 100%; font-size: 14px;&quot; cellpadding=&quot;2&quot; cellspacing=&quot;0&quot;&gt;&lt;tbody&gt;&lt;tr&gt;&lt;td&gt;&lt;font style=&quot;font-size: 14px;&quot;&gt;PK&lt;/font&gt;&lt;/td&gt;&lt;td&gt;&lt;font style=&quot;font-size: 14px;&quot;&gt;ID&lt;br&gt;&lt;br&gt;&lt;/font&gt;&lt;/td&gt;&lt;/tr&gt;&lt;tr&gt;&lt;td&gt;&lt;font style=&quot;font-size: 14px;&quot;&gt;FK1&lt;/font&gt;&lt;/td&gt;&lt;td&gt;&lt;font style=&quot;font-size: 14px;&quot;&gt;&lt;br&gt;&lt;/font&gt;&lt;/td&gt;&lt;/tr&gt;&lt;tr&gt;&lt;td&gt;&lt;/td&gt;&lt;td&gt;&lt;font style=&quot;font-size: 14px;&quot;&gt;email&lt;br&gt;mot de pass&lt;/font&gt;&lt;/td&gt;&lt;/tr&gt;&lt;/tbody&gt;&lt;/table&gt;" style="verticalAlign=top;align=left;overflow=fill;html=1;whiteSpace=wrap;" parent="1" vertex="1">
          <mxGeometry x="60" y="80" width="180" height="160" as="geometry" />
        </mxCell>
        <mxCell id="kwpmOlfegCg05qd6BDI_-2" value="&lt;div style=&quot;box-sizing: border-box; width: 100%; background: rgb(228, 228, 228); padding: 2px; font-size: 14px;&quot;&gt;&lt;font style=&quot;font-size: 14px;&quot;&gt;MEDECIN&lt;/font&gt;&lt;/div&gt;&lt;table style=&quot;width: 100%; font-size: 14px;&quot; cellpadding=&quot;2&quot; cellspacing=&quot;0&quot;&gt;&lt;tbody&gt;&lt;tr&gt;&lt;td&gt;&lt;font style=&quot;font-size: 14px;&quot;&gt;PK&lt;/font&gt;&lt;/td&gt;&lt;td&gt;&lt;font style=&quot;font-size: 14px;&quot;&gt;ID_docteur&lt;br&gt;&lt;br&gt;&lt;/font&gt;&lt;/td&gt;&lt;/tr&gt;&lt;tr&gt;&lt;td&gt;&lt;br&gt;&lt;/td&gt;&lt;td&gt;&lt;font style=&quot;font-size: 14px;&quot;&gt;nom&lt;br&gt;&lt;br&gt;&lt;/font&gt;&lt;/td&gt;&lt;/tr&gt;&lt;tr&gt;&lt;td&gt;&lt;/td&gt;&lt;td&gt;&lt;font style=&quot;font-size: 14px;&quot;&gt;prenom&lt;br&gt;email&lt;br&gt;password&lt;br&gt;qualifications&lt;br&gt;disponibilités&lt;br&gt;&lt;br&gt;spécialité&lt;br&gt;&lt;br&gt;&lt;br&gt;&lt;/font&gt;&lt;/td&gt;&lt;/tr&gt;&lt;/tbody&gt;&lt;/table&gt;" style="verticalAlign=top;align=left;overflow=fill;html=1;whiteSpace=wrap;" parent="1" vertex="1">
          <mxGeometry x="40" y="720" width="160" height="270" as="geometry" />
        </mxCell>
        <mxCell id="kwpmOlfegCg05qd6BDI_-3" value="&lt;div style=&quot;box-sizing: border-box; width: 100%; background: rgb(228, 228, 228); padding: 2px; font-size: 14px;&quot;&gt;&lt;font style=&quot;font-size: 14px;&quot;&gt;PATIENT&lt;/font&gt;&lt;/div&gt;&lt;table style=&quot;width: 100%; font-size: 14px;&quot; cellpadding=&quot;2&quot; cellspacing=&quot;0&quot;&gt;&lt;tbody&gt;&lt;tr&gt;&lt;td&gt;&lt;font style=&quot;font-size: 14px;&quot;&gt;PK&lt;/font&gt;&lt;/td&gt;&lt;td&gt;&lt;font style=&quot;font-size: 14px;&quot;&gt;user-id&lt;br&gt;&lt;br&gt;&lt;/font&gt;&lt;/td&gt;&lt;/tr&gt;&lt;tr&gt;&lt;td&gt;&lt;font style=&quot;font-size: 14px;&quot;&gt;FK1&lt;/font&gt;&lt;/td&gt;&lt;td&gt;&lt;font style=&quot;font-size: 14px;&quot;&gt;nom&lt;br&gt;&lt;br&gt;&lt;/font&gt;&lt;/td&gt;&lt;/tr&gt;&lt;tr&gt;&lt;td&gt;&lt;/td&gt;&lt;td&gt;&lt;font style=&quot;font-size: 14px;&quot;&gt;prenom&lt;br&gt;&lt;br&gt;sexe&lt;br&gt;&lt;br&gt;mot de passe&lt;br&gt;&lt;br&gt;email&lt;br&gt;&lt;br&gt;phone&lt;br&gt;motif&lt;/font&gt;&lt;/td&gt;&lt;/tr&gt;&lt;/tbody&gt;&lt;/table&gt;" style="verticalAlign=top;align=left;overflow=fill;html=1;whiteSpace=wrap;" parent="1" vertex="1">
          <mxGeometry x="610" y="80" width="180" height="300" as="geometry" />
        </mxCell>
        <mxCell id="xGrtyCiVt64g8u2Bj9NE-2" value="&lt;div style=&quot;box-sizing: border-box; width: 100%; background: rgb(228, 228, 228); padding: 2px; font-size: 14px;&quot;&gt;&lt;font style=&quot;font-size: 14px;&quot;&gt;RENDEZ-VOUS&lt;/font&gt;&lt;/div&gt;&lt;table style=&quot;width: 100%; font-size: 14px;&quot; cellpadding=&quot;2&quot; cellspacing=&quot;0&quot;&gt;&lt;tbody&gt;&lt;tr&gt;&lt;td&gt;&lt;font style=&quot;font-size: 14px;&quot;&gt;PK&lt;/font&gt;&lt;/td&gt;&lt;td&gt;&lt;font style=&quot;font-size: 14px;&quot;&gt;ID_rendez-vous&lt;br&gt;&lt;br&gt;&lt;/font&gt;&lt;/td&gt;&lt;/tr&gt;&lt;tr&gt;&lt;td&gt;&lt;font style=&quot;font-size: 14px;&quot;&gt;&lt;br&gt;&lt;/font&gt;&lt;/td&gt;&lt;td&gt;&lt;font style=&quot;font-size: 14px;&quot;&gt;date_et_heure&lt;br&gt;&lt;br&gt;&lt;/font&gt;&lt;/td&gt;&lt;/tr&gt;&lt;tr&gt;&lt;td&gt;&lt;/td&gt;&lt;td&gt;&lt;font style=&quot;font-size: 14px;&quot;&gt;statut&lt;br&gt;patient_id&lt;br&gt;doctor_id&lt;/font&gt;&lt;/td&gt;&lt;/tr&gt;&lt;/tbody&gt;&lt;/table&gt;" style="verticalAlign=top;align=left;overflow=fill;html=1;whiteSpace=wrap;" parent="1" vertex="1">
          <mxGeometry x="304" y="419.5" width="180" height="170.5" as="geometry" />
        </mxCell>
        <mxCell id="xGrtyCiVt64g8u2Bj9NE-3" value="&lt;div style=&quot;box-sizing: border-box; width: 100%; background: rgb(228, 228, 228); padding: 2px; font-size: 14px;&quot;&gt;&lt;font style=&quot;font-size: 14px;&quot;&gt;NOTIFICATION&lt;/font&gt;&lt;/div&gt;&lt;table style=&quot;width: 100%; font-size: 14px;&quot; cellpadding=&quot;2&quot; cellspacing=&quot;0&quot;&gt;&lt;tbody&gt;&lt;tr&gt;&lt;td&gt;&lt;font style=&quot;font-size: 14px;&quot;&gt;PK&lt;/font&gt;&lt;/td&gt;&lt;td&gt;&lt;font style=&quot;font-size: 14px;&quot;&gt;ID_notification&lt;br&gt;&lt;br&gt;&lt;/font&gt;&lt;/td&gt;&lt;/tr&gt;&lt;tr&gt;&lt;td&gt;&lt;font style=&quot;font-size: 14px;&quot;&gt;FK1&lt;/font&gt;&lt;/td&gt;&lt;td&gt;&lt;font style=&quot;font-size: 14px;&quot;&gt;message&lt;br&gt;&lt;br&gt;&lt;/font&gt;&lt;/td&gt;&lt;/tr&gt;&lt;tr&gt;&lt;td&gt;&lt;/td&gt;&lt;td&gt;&lt;font style=&quot;font-size: 14px;&quot;&gt;date_et_heure&lt;br&gt;&lt;br&gt;statut&lt;/font&gt;&lt;/td&gt;&lt;/tr&gt;&lt;/tbody&gt;&lt;/table&gt;" style="verticalAlign=top;align=left;overflow=fill;html=1;whiteSpace=wrap;" parent="1" vertex="1">
          <mxGeometry x="580" y="720" width="180" height="165" as="geometry" />
        </mxCell>
        <mxCell id="xGrtyCiVt64g8u2Bj9NE-4" value="valide" style="ellipse;whiteSpace=wrap;html=1;" parent="1" vertex="1">
          <mxGeometry x="50" y="460" width="140" height="70" as="geometry" />
        </mxCell>
        <mxCell id="xGrtyCiVt64g8u2Bj9NE-5" value="prendre" style="ellipse;whiteSpace=wrap;html=1;" parent="1" vertex="1">
          <mxGeometry x="344" y="180" width="140" height="70" as="geometry" />
        </mxCell>
        <mxCell id="xGrtyCiVt64g8u2Bj9NE-6" value="prendre" style="ellipse;whiteSpace=wrap;html=1;" parent="1" vertex="1">
          <mxGeometry x="350" y="750" width="140" height="70" as="geometry" />
        </mxCell>
        <mxCell id="xGrtyCiVt64g8u2Bj9NE-7" value="declencher" style="ellipse;whiteSpace=wrap;html=1;" parent="1" vertex="1">
          <mxGeometry x="620" y="430" width="140" height="70" as="geometry" />
        </mxCell>
        <mxCell id="xGrtyCiVt64g8u2Bj9NE-8" value="" style="endArrow=none;html=1;rounded=0;entryX=0.5;entryY=1;entryDx=0;entryDy=0;" parent="1" target="xGrtyCiVt64g8u2Bj9NE-4" edge="1">
          <mxGeometry width="50" height="50" relative="1" as="geometry">
            <mxPoint x="120" y="720" as="sourcePoint" />
            <mxPoint x="170" y="670" as="targetPoint" />
          </mxGeometry>
        </mxCell>
        <mxCell id="xGrtyCiVt64g8u2Bj9NE-17" value="1,1" style="edgeLabel;html=1;align=center;verticalAlign=middle;resizable=0;points=[];" parent="xGrtyCiVt64g8u2Bj9NE-8" vertex="1" connectable="0">
          <mxGeometry x="-0.8211" relative="1" as="geometry">
            <mxPoint as="offset" />
          </mxGeometry>
        </mxCell>
        <mxCell id="xGrtyCiVt64g8u2Bj9NE-9" value="" style="endArrow=none;html=1;rounded=0;entryX=0.333;entryY=0.994;entryDx=0;entryDy=0;entryPerimeter=0;" parent="1" target="kwpmOlfegCg05qd6BDI_-1" edge="1">
          <mxGeometry width="50" height="50" relative="1" as="geometry">
            <mxPoint x="120" y="460" as="sourcePoint" />
            <mxPoint x="170" y="410" as="targetPoint" />
          </mxGeometry>
        </mxCell>
        <mxCell id="xGrtyCiVt64g8u2Bj9NE-16" value="1,n" style="edgeLabel;html=1;align=center;verticalAlign=middle;resizable=0;points=[];" parent="xGrtyCiVt64g8u2Bj9NE-9" vertex="1" connectable="0">
          <mxGeometry x="0.8103" y="-2" relative="1" as="geometry">
            <mxPoint as="offset" />
          </mxGeometry>
        </mxCell>
        <mxCell id="xGrtyCiVt64g8u2Bj9NE-10" value="" style="endArrow=none;html=1;rounded=0;exitX=0.357;exitY=0;exitDx=0;exitDy=0;exitPerimeter=0;" parent="1" source="xGrtyCiVt64g8u2Bj9NE-6" edge="1">
          <mxGeometry width="50" height="50" relative="1" as="geometry">
            <mxPoint x="350" y="599.5" as="sourcePoint" />
            <mxPoint x="400" y="549.5" as="targetPoint" />
          </mxGeometry>
        </mxCell>
        <mxCell id="xGrtyCiVt64g8u2Bj9NE-19" value="1,1" style="edgeLabel;html=1;align=center;verticalAlign=middle;resizable=0;points=[];" parent="xGrtyCiVt64g8u2Bj9NE-10" vertex="1" connectable="0">
          <mxGeometry x="0.8554" y="1" relative="1" as="geometry">
            <mxPoint as="offset" />
          </mxGeometry>
        </mxCell>
        <mxCell id="xGrtyCiVt64g8u2Bj9NE-11" value="" style="endArrow=none;html=1;rounded=0;exitX=1.025;exitY=0.296;exitDx=0;exitDy=0;exitPerimeter=0;" parent="1" source="kwpmOlfegCg05qd6BDI_-2" edge="1">
          <mxGeometry width="50" height="50" relative="1" as="geometry">
            <mxPoint x="304" y="850" as="sourcePoint" />
            <mxPoint x="354" y="800" as="targetPoint" />
          </mxGeometry>
        </mxCell>
        <mxCell id="xGrtyCiVt64g8u2Bj9NE-18" value="1,n" style="edgeLabel;html=1;align=center;verticalAlign=middle;resizable=0;points=[];" parent="xGrtyCiVt64g8u2Bj9NE-11" vertex="1" connectable="0">
          <mxGeometry x="-0.7886" y="-1" relative="1" as="geometry">
            <mxPoint as="offset" />
          </mxGeometry>
        </mxCell>
        <mxCell id="xGrtyCiVt64g8u2Bj9NE-12" value="" style="endArrow=none;html=1;rounded=0;entryX=0.429;entryY=1;entryDx=0;entryDy=0;entryPerimeter=0;" parent="1" target="xGrtyCiVt64g8u2Bj9NE-7" edge="1">
          <mxGeometry width="50" height="50" relative="1" as="geometry">
            <mxPoint x="680" y="720" as="sourcePoint" />
            <mxPoint x="730" y="670" as="targetPoint" />
          </mxGeometry>
        </mxCell>
        <mxCell id="xGrtyCiVt64g8u2Bj9NE-23" value="1,1" style="edgeLabel;html=1;align=center;verticalAlign=middle;resizable=0;points=[];" parent="xGrtyCiVt64g8u2Bj9NE-12" vertex="1" connectable="0">
          <mxGeometry x="-0.8" y="2" relative="1" as="geometry">
            <mxPoint as="offset" />
          </mxGeometry>
        </mxCell>
        <mxCell id="xGrtyCiVt64g8u2Bj9NE-13" value="" style="endArrow=none;html=1;rounded=0;exitX=0.994;exitY=0.349;exitDx=0;exitDy=0;exitPerimeter=0;" parent="1" source="xGrtyCiVt64g8u2Bj9NE-2" edge="1">
          <mxGeometry width="50" height="50" relative="1" as="geometry">
            <mxPoint x="570" y="530" as="sourcePoint" />
            <mxPoint x="620" y="480" as="targetPoint" />
          </mxGeometry>
        </mxCell>
        <mxCell id="xGrtyCiVt64g8u2Bj9NE-22" value="1,n" style="edgeLabel;html=1;align=center;verticalAlign=middle;resizable=0;points=[];" parent="xGrtyCiVt64g8u2Bj9NE-13" vertex="1" connectable="0">
          <mxGeometry x="-0.6779" relative="1" as="geometry">
            <mxPoint as="offset" />
          </mxGeometry>
        </mxCell>
        <mxCell id="xGrtyCiVt64g8u2Bj9NE-14" value="" style="endArrow=none;html=1;rounded=0;entryX=0.407;entryY=1.043;entryDx=0;entryDy=0;entryPerimeter=0;" parent="1" target="xGrtyCiVt64g8u2Bj9NE-5" edge="1">
          <mxGeometry width="50" height="50" relative="1" as="geometry">
            <mxPoint x="400" y="419.5" as="sourcePoint" />
            <mxPoint x="450" y="369.5" as="targetPoint" />
          </mxGeometry>
        </mxCell>
        <mxCell id="xGrtyCiVt64g8u2Bj9NE-21" value="1,1" style="edgeLabel;html=1;align=center;verticalAlign=middle;resizable=0;points=[];" parent="xGrtyCiVt64g8u2Bj9NE-14" vertex="1" connectable="0">
          <mxGeometry x="-0.745" y="-1" relative="1" as="geometry">
            <mxPoint as="offset" />
          </mxGeometry>
        </mxCell>
        <mxCell id="xGrtyCiVt64g8u2Bj9NE-15" value="" style="endArrow=none;html=1;rounded=0;entryX=-0.006;entryY=0.433;entryDx=0;entryDy=0;entryPerimeter=0;" parent="1" target="kwpmOlfegCg05qd6BDI_-3" edge="1">
          <mxGeometry width="50" height="50" relative="1" as="geometry">
            <mxPoint x="484" y="210" as="sourcePoint" />
            <mxPoint x="606" y="220" as="targetPoint" />
          </mxGeometry>
        </mxCell>
        <mxCell id="xGrtyCiVt64g8u2Bj9NE-20" value="1,n" style="edgeLabel;html=1;align=center;verticalAlign=middle;resizable=0;points=[];" parent="xGrtyCiVt64g8u2Bj9NE-15" vertex="1" connectable="0">
          <mxGeometry x="0.7043" y="1" relative="1" as="geometry">
            <mxPoint as="offset" />
          </mxGeometry>
        </mxCell>
      </root>
    </mxGraphModel>
  </diagram>
</mxfile>
